<svg width="89" height="21" viewBox="0 0 89 21" fill="none" xmlns="http://www.w3.org/2000/svg">
<path d="M0 1.1958H5.77491C9.45656 1.1958 12.4979 3.30676 12.4979 8.12657V9.13934C12.4979 13.9958 9.65357 16.1799 5.88572 16.1799H0V1.1958ZM3.22607 3.91686V13.4467H5.70103C7.79428 13.4467 9.19798 12.0922 9.19798 9.07833V8.28519C9.19798 5.27129 7.7204 3.91686 5.59021 3.91686H3.22607ZM14.2095 4.06328H16.7953L17.2139 6.88196C17.7064 4.96623 18.9624 3.94126 21.2403 3.94126H22.0407V7.17481H20.7109C18.0881 7.17481 17.4479 8.07776 17.4479 10.6402V16.2165H14.2587V4.06328H14.2095ZM22.681 10.3839V10.0423C22.681 5.97901 25.3037 3.75823 28.8745 3.75823C32.5193 3.75823 35.0681 5.97901 35.0681 10.0423V10.3839C35.0681 14.374 32.5931 16.5216 28.8745 16.5216C24.922 16.485 22.681 14.3862 22.681 10.3839ZM31.8051 10.3473V10.0423C31.8051 7.78491 30.66 6.43048 28.8376 6.43048C27.0522 6.43048 25.8701 7.67509 25.8701 10.0423V10.3473C25.8701 12.5315 27.0152 13.7761 28.8376 13.7761C30.66 13.7395 31.8051 12.5315 31.8051 10.3473ZM36.7427 4.06328H39.4024L39.7102 6.35727C40.3505 4.81981 41.7172 3.75823 43.7366 3.75823C46.8519 3.75823 48.9082 5.979 48.9082 10.0911V10.4328C48.9082 14.4228 46.6302 16.5338 43.7366 16.5338C41.8034 16.5338 40.4736 15.6674 39.821 14.2764V20.414H36.7057L36.7427 4.06328ZM45.6698 10.3473V10.0789C45.6698 7.66289 44.4138 6.46709 42.7392 6.46709C40.9538 6.46709 39.7717 7.82152 39.7717 10.0789V10.3107C39.7717 12.4583 40.9169 13.8127 42.7023 13.8127C44.537 13.7761 45.6698 12.6169 45.6698 10.3473ZM53.6241 13.9713L53.3532 16.1921H50.6197V0H53.735V6.21084C54.4245 4.62458 55.7913 3.75823 57.7244 3.75823C60.655 3.79484 62.8221 5.79597 62.8221 9.82265V10.2009C62.8221 14.2276 60.7658 16.5338 57.6506 16.5338C55.5943 16.485 54.2644 15.5454 53.6241 13.9713ZM59.5468 10.2009V9.89586C59.5468 7.67509 58.3278 6.43048 56.6163 6.43048C54.8678 6.43048 53.6488 7.82151 53.6488 9.93247V10.2009C53.6488 12.4583 54.8308 13.7761 56.5793 13.7761C58.4509 13.7761 59.5468 12.6169 59.5468 10.2009ZM64.1889 10.3839V10.0423C64.1889 5.97901 66.8116 3.75823 70.3824 3.75823C74.0272 3.75823 76.576 5.97901 76.576 10.0423V10.3839C76.576 14.374 74.0641 16.5216 70.3824 16.5216C66.4299 16.485 64.1889 14.3862 64.1889 10.3839ZM73.3376 10.3473V10.0423C73.3376 7.78491 72.1925 6.43048 70.3701 6.43048C68.5847 6.43048 67.4026 7.67509 67.4026 10.0423V10.3473C67.4026 12.5315 68.5478 13.7761 70.3701 13.7761C72.2048 13.7395 73.3376 12.5315 73.3376 10.3473ZM80.7502 9.89586L76.4529 4.06328H80.1345L82.6095 7.7117L85.1214 4.06328H88.7661L84.4072 9.85926L89.0001 16.1921H85.3923L82.5849 12.1654L79.8513 16.1921H76.0835L80.7502 9.89586Z" fill="#B7BEC9"/>
</svg>
