<svg width="50" height="50" viewBox="0 0 50 50" fill="none" xmlns="http://www.w3.org/2000/svg">
<g clip-path="url(#clip0_1_1285)">
<path d="M50 18.7501L48.3093 20.4408C47.3594 21.3908 46.2623 22.1814 45.0607 22.7823L41.4877 24.5688L25.4313 8.51241L27.2179 4.93943C27.8187 3.73782 28.6095 2.64093 29.5594 1.69082L31.2501 0.000137329C31.2501 3.43323e-05 50 18.7501 50 18.7501Z" fill="white"/>
<path d="M37.2588 29.1779C33.3342 35.374 34.3749 40.625 34.3749 40.625L-0.0001297 50L9.37484 15.625C9.37484 15.625 14.6259 16.6657 20.822 12.7411C20.8221 12.7411 37.2588 29.1779 37.2588 29.1779ZM12.4999 32.8125C12.4999 35.4013 14.5986 37.5 17.1874 37.5C19.7762 37.5 21.8749 35.4013 21.8749 32.8125C21.8749 30.2237 19.7762 28.125 17.1874 28.125C14.5986 28.125 12.4999 30.2237 12.4999 32.8125Z" fill="white"/>
</g>
<defs>
<clipPath id="clip0_1_1285">
<rect width="50" height="50" fill="white" transform="matrix(0 -1 -1 0 50 50)"/>
</clipPath>
</defs>
</svg>
