<svg width="25" height="23" viewBox="0 0 25 23" fill="none" xmlns="http://www.w3.org/2000/svg">
<path d="M0 22.09V7.93798C0 3.56137 3.07833 0 6.86134 0H18.137C21.9208 0 25 3.56137 25 7.93798V10.379C25 14.7556 21.9217 18.317 18.1387 18.317H7.02041L0 22.09ZM6.86134 1.76972C3.92147 1.76972 1.52969 4.53681 1.52969 7.93798V19.3162L6.68332 16.5463H18.1387C21.0785 16.5463 23.4703 13.7792 23.4703 10.378V7.93703C23.4703 4.53585 21.0777 1.76876 18.137 1.76876H6.86134V1.76972ZM7.36574 7.80354C8.16932 7.80354 8.82043 8.55681 8.82043 9.48649C8.82043 10.4162 8.16932 11.1694 7.36574 11.1694C6.56216 11.1694 5.91105 10.4162 5.91105 9.48649C5.91105 8.55681 6.56216 7.80354 7.36574 7.80354ZM17.6334 7.80354C18.437 7.80354 19.0881 8.55681 19.0881 9.48649C19.0881 10.4162 18.437 11.1694 17.6334 11.1694C16.8299 11.1694 16.1787 10.4162 16.1787 9.48649C16.1787 8.55681 16.8299 7.80354 17.6334 7.80354ZM12.4988 7.80354C13.3023 7.80354 13.9535 8.55681 13.9535 9.48649C13.9535 10.4162 13.3023 11.1694 12.4988 11.1694C11.6952 11.1694 11.0441 10.4162 11.0441 9.48649C11.0441 8.55681 11.6952 7.80354 12.4988 7.80354Z" fill="#B5C3CB"/>
</svg>
