<svg width="50" height="31" viewBox="0 0 50 31" fill="none" xmlns="http://www.w3.org/2000/svg">
<path d="M49.9987 27.1994L49.8794 23.4565C49.8705 23.1443 49.8001 22.8368 49.6721 22.5519C49.5441 22.2669 49.3612 22.01 49.1337 21.7959C48.9063 21.5818 48.6388 21.4147 48.3467 21.3041C48.0545 21.1936 47.7435 21.1417 47.4313 21.1516L46.9233 21.1666C45.9667 17.0655 43.8173 13.3395 40.7462 10.4581L40.7141 10.4281C38.821 8.63923 36.6173 7.21082 34.2114 6.2131L40.7743 6.01273C41.1507 6.98315 41.8582 7.78912 42.7717 8.28804C43.6852 8.78695 44.7456 8.94664 45.7655 8.73882C46.7854 8.531 47.6989 7.96903 48.3443 7.15246C48.9898 6.3359 49.3256 5.31733 49.2923 4.27701C49.2562 3.10695 48.7577 1.99893 47.9063 1.19556C47.4853 0.796541 46.9889 0.48556 46.4462 0.280791C45.9035 0.0760232 45.3254 -0.0184791 44.7457 0.00298381C43.5772 0.0366806 42.4698 0.533099 41.6672 1.38297C41.219 1.86079 40.8816 2.43146 40.679 3.05446L28.8631 3.40824L28.8501 3.00737C28.8413 2.69509 28.7709 2.38764 28.643 2.10263C28.5151 1.81762 28.3321 1.56066 28.1046 1.34652C27.8772 1.13237 27.6098 0.965272 27.3176 0.854756C27.0254 0.74424 26.7142 0.692439 26.4019 0.702457L22.6199 0.807782C22.3083 0.81619 22.0014 0.886093 21.717 1.01366C21.4326 1.14123 21.1763 1.32393 20.9627 1.55105C20.7492 1.77817 20.5828 2.04526 20.4731 2.33701C20.3633 2.62876 20.3123 2.93939 20.3231 3.25092L20.3362 3.65167L8.52023 4.00642C8.14386 3.03601 7.43634 2.23003 6.52285 1.73112C5.60937 1.2322 4.54876 1.07252 3.52887 1.28034C2.50898 1.48815 1.5955 2.05012 0.950064 2.86669C0.304631 3.68326 -0.0310752 4.70183 0.00226442 5.74214C0.0345956 6.78068 0.432657 7.77442 1.12622 8.54811C1.81978 9.3218 2.76425 9.82568 3.7931 9.97091C4.82194 10.1161 5.86903 9.89337 6.74965 9.3419C7.63027 8.79042 8.28781 7.94575 8.60635 6.95674L15.1693 6.75624C12.1101 8.25401 9.45069 10.4574 7.4101 13.1846C5.36952 15.9118 4.00614 19.0849 3.43247 22.4424L2.80114 22.4614C2.17071 22.4815 1.57408 22.751 1.142 23.2105C0.709912 23.67 0.477717 24.2821 0.496349 24.9126L0.615496 28.6705C0.624307 28.9828 0.69468 29.2902 0.822598 29.5753C0.950517 29.8603 1.13351 30.1172 1.36097 30.3314C1.58842 30.5455 1.85595 30.7126 2.14815 30.8231C2.44035 30.9336 2.75141 30.9854 3.06365 30.9754L6.82268 30.8631C7.45302 30.8427 8.04955 30.5732 8.48158 30.1137C8.91361 29.6543 9.14583 29.0423 9.12747 28.4119L9.0082 24.653C8.99952 24.3407 8.92922 24.0332 8.80134 23.7481C8.67347 23.4631 8.49058 23.2061 8.2631 22.9919C8.03561 22.7777 7.76805 22.6106 7.47579 22.5001C7.18354 22.3897 6.87232 22.3381 6.56004 22.3482H6.4519C7.17692 18.8281 8.908 15.5939 11.4352 13.0384C13.9624 10.4829 17.177 8.71591 20.6888 7.95176C20.8132 8.21949 20.9885 8.46048 21.2049 8.66126C21.4325 8.87548 21.7001 9.04261 21.9925 9.15302C22.2849 9.26343 22.5963 9.31504 22.9086 9.30471L26.6675 9.19241C27.1276 9.17784 27.5735 9.02989 27.951 8.76659C28.3285 8.50328 28.6213 8.13598 28.794 7.7093C32.351 8.26127 35.6721 9.83137 38.3561 12.2299C41.0401 14.6285 42.9721 17.753 43.9189 21.2259L43.6874 21.2328C43.0571 21.2532 42.4606 21.5228 42.0285 21.9822C41.5965 22.4417 41.3642 23.0536 41.3825 23.684L41.5018 27.442C41.5106 27.7542 41.581 28.0617 41.7089 28.3467C41.8368 28.6317 42.0198 28.8887 42.2473 29.1028C42.4747 29.317 42.7421 29.4841 43.0343 29.5946C43.3265 29.7051 43.6377 29.7568 43.9499 29.7468L47.7089 29.6346C48.0193 29.6256 48.325 29.5554 48.6082 29.4281C48.8915 29.3008 49.1468 29.1188 49.3595 28.8925C49.5723 28.6663 49.7382 28.4003 49.8479 28.1098C49.9576 27.8192 50.0089 27.5098 49.9987 27.1994ZM6.15318 27.959L3.51872 28.0382L3.43443 25.4036L6.06902 25.3245L6.15318 27.959ZM44.8177 2.9462C45.1061 2.93802 45.3903 3.01553 45.6347 3.16884C45.879 3.32215 46.0725 3.54446 46.1905 3.80764C46.3086 4.07082 46.3459 4.363 46.2979 4.64742C46.2499 4.93184 46.1188 5.19573 45.9209 5.40562C45.723 5.6155 45.4674 5.762 45.1863 5.82667C44.9052 5.89134 44.6113 5.87125 44.3416 5.76893C44.072 5.66661 43.8386 5.4867 43.6712 5.25185C43.5037 5.01699 43.4096 4.73768 43.4008 4.44937C43.3954 4.25749 43.428 4.06649 43.4968 3.88728C43.5656 3.70806 43.6693 3.54419 43.8017 3.40518C44.0673 3.12514 44.432 2.96036 44.8177 2.9462ZM4.44963 7.09301C4.16131 7.1012 3.87705 7.02368 3.63273 6.87037C3.3884 6.71707 3.19503 6.49488 3.07699 6.2317C2.95894 5.96852 2.92148 5.67621 2.96946 5.39179C3.01744 5.10737 3.14863 4.84349 3.34648 4.6336C3.54433 4.42372 3.79996 4.27722 4.08106 4.21255C4.36215 4.14788 4.65618 4.16797 4.92586 4.27029C5.19554 4.37261 5.42877 4.55263 5.59622 4.78749C5.76367 5.02235 5.85773 5.30154 5.86656 5.58984C5.87244 5.78177 5.84049 5.9729 5.77237 6.15243C5.70425 6.33196 5.60132 6.49627 5.46961 6.63599C5.33789 6.77571 5.17996 6.88819 5.00476 6.96677C4.82956 7.04535 4.64059 7.08855 4.44866 7.09399L4.44963 7.09301ZM23.3626 6.3725L23.2783 3.73791L25.9129 3.65877L25.955 4.96854L25.997 6.27831L23.3626 6.3725ZM44.413 26.8035L44.3288 24.1689L46.9633 24.0909L47.0475 26.7254L44.413 26.8035Z" fill="white"/>
</svg>
