<svg width="248" height="105" viewBox="0 0 248 105" fill="none" xmlns="http://www.w3.org/2000/svg">
<g opacity="0.5">
<path d="M175.932 23.837C183.374 19.2684 191.76 16.418 200.166 15.6125C207.333 14.9108 214.779 15.6883 221.87 17.8349L222.114 14.987C214.742 12.8583 207.237 12.1177 199.902 12.819C191.071 13.6722 182.282 16.656 174.472 21.4449C166.661 26.2338 160.033 32.7333 155.278 40.2329C153.936 42.343 152.756 44.5231 151.725 46.7578C139.538 50.3743 128.695 57.0866 118.752 63.904C116.33 65.5579 113.889 67.28 111.536 68.9398C102.918 74.989 94.0172 81.2379 84.4567 85.8769C73.6702 91.1107 61.586 94.3442 49.5073 95.227C37.0906 96.1369 25.0451 94.6716 13.7041 90.8596C9.05445 89.2859 4.53648 87.3177 0.257745 85.0061L-0.000410466 88.0207C4.15253 90.1676 8.40227 92.0009 12.8218 93.485C19.7293 95.8118 26.905 97.2939 34.2377 97.9218C39.3207 98.3571 44.4948 98.3803 49.7174 98.0019C62.1341 97.092 74.5762 93.7633 85.6837 88.375C95.4342 83.6403 104.438 77.3303 113.132 71.2175C115.484 69.5577 117.925 67.8495 120.332 66.2084C129.486 59.9392 139.373 53.7748 150.317 50.1358C147.012 58.8371 146.129 67.9977 147.928 76.3944C149.255 82.6235 152.167 88.4845 156.339 93.348C160.664 98.3924 166.062 102.003 171.967 103.783C178.008 105.615 184.73 105.365 190.91 103.124C197.249 100.812 202.384 96.5632 205.392 91.1671C208.714 85.2102 209.467 77.8857 207.507 70.5528C205.652 63.6208 201.448 57.1732 195.956 52.8545C190.634 48.6763 184.165 45.9672 176.765 44.8158C170.07 43.7666 162.81 44.0826 155.773 45.7191C155.616 45.7615 155.459 45.7901 155.302 45.8326C156.008 44.4517 156.796 43.0917 157.637 41.7643C162.168 34.5954 168.49 28.4056 175.932 23.837ZM156.396 48.4173C163.09 46.8634 169.984 46.5721 176.334 47.5637C183.264 48.6469 189.288 51.164 194.23 55.0437C199.25 58.9862 203.108 64.9003 204.802 71.2588C206.571 77.8896 205.908 84.4801 202.949 89.7964C197.493 99.601 184.225 104.566 172.756 101.107C167.369 99.4844 162.421 96.1639 158.44 91.5267C154.574 87.0113 151.876 81.5885 150.636 75.8146C148.805 67.3032 149.946 57.8988 153.735 49.0991C154.625 48.8394 155.511 48.6214 156.396 48.4173Z" fill="white"/>
<path d="M247.887 24.2519L221.32 -2.79503e-05L220.934 10.6776L239.533 20.817L220.791 14.6198L220.791 14.63L220.79 14.6178L212.589 17.3222L220.574 20.6055L220.3 28.1909L247.887 24.2519Z" fill="white"/>
</g>
</svg>
